<svg xmlns="http://www.w3.org/2000/svg" width="54.179" height="51.308" viewBox="0 0 54.179 51.308">
  <g id="icon" transform="translate(-760.944 -310.9)">
    <path id="Path_5" data-name="Path 5" d="M806.715,317.025c.541,2.843,1.117,5.719,1.624,8.562a1.814,1.814,0,0,0,.372.914.818.818,0,0,1,.068,1.015c1.455,7.546,2.843,15.093,4.365,22.639a34.671,34.671,0,0,0,1.32,6.125.818.818,0,0,1,.068,1.015c.169.744.271,1.523.474,2.267.271,1.117.135,2.064-1.083,2.437a1.794,1.794,0,0,1-2.47-1.624c-.169-1.827-.744-3.587-.981-5.381-.1-.812-.44-.744-.914-.744-3.722,0-7.445.034-11.133-.034-1.151-.034-1.049.778-1.218,1.421-.372,1.557-.677,3.147-.948,4.738a3.351,3.351,0,0,1-.778,1.59,1.91,1.91,0,0,1-1.658.1c-1.726-1.32-.812-3.079-.541-4.568.575-3.283.711-3.249-2.538-3.249q-11.726,0-23.485-.034c-1.117,0-1.861,0-1.963,1.523a32.062,32.062,0,0,1-.914,4.7c-.237,1.286-.981,1.726-2.267,1.59-1.489-.135-1.184-1.184-1.049-2,.643-3.959,1.421-7.885,2.1-11.81.711-4.095,1.76-8.088,2.3-12.216.338-2.538,1.083-5.042,1.658-7.546a1.111,1.111,0,0,0-.068-.981c-.135-.44.1-.711.372-1.015.575-2.775,1.117-5.55,1.692-8.325.068-.372.237-.778-.034-1.151-.135-.44.1-.711.372-1.015.237-1.387.44-2.775.778-4.129a1.319,1.319,0,0,1,1.421-.948c1.015.034,2.03,0,3.046,0h28.426c2.234,0,2.47.3,2.944,2.538a5.537,5.537,0,0,0,.643,2.538A.979.979,0,0,1,806.715,317.025Z" transform="translate(0 0)" fill="#754ef9"/>
    <path id="Path_113" data-name="Path 113" d="M798.105,320.934c4.3,0,8.562.034,12.859-.034.947,0,1.421.068,1.184,1.252q-3.35,17.056-6.633,34.145c-.169.88-.474,1.184-1.421,1.184-8.7-.034-17.36-.034-26.057,0-1.049,0-1.218-.338-1.049-1.286q3.35-17.056,6.633-34.145c.169-.981.575-1.151,1.421-1.151C789.408,320.968,793.774,320.934,798.105,320.934Z" transform="translate(-10.577 -6.616)" fill="#fcfcfc"/>
    <path id="Path_114" data-name="Path 114" d="M877.259,343.029c1.76,9.171,3.486,18.341,5.313,27.478.237,1.252.1,1.658-1.286,1.591-2.91-.1-5.854-.068-8.8-.034-.948,0-1.354-.034-1.117-1.252,1.794-9.035,3.519-18.1,5.245-27.174C876.921,343.537,876.582,342.826,877.259,343.029Z" transform="translate(-73.014 -21.232)" fill="#fefefe"/>
    <path id="Path_137" data-name="Path 137" d="M804.926,361.708c1.117.068,1.624.948,2.233,1.658,1.76,2.03,1.76,2.03,3.519.1,2.267-2.5,4.535-5.008,6.768-7.513.812-.914,1.76-1.624,2.843-.575,1.015.948.508,1.929-.3,2.809-3.08,3.418-6.159,6.87-9.272,10.254-1.421,1.59-2.267,1.557-3.722-.068-1.117-1.252-2.234-2.538-3.316-3.824a1.537,1.537,0,0,1-.271-1.861A1.7,1.7,0,0,1,804.926,361.708Z" transform="translate(-27.957 -29.083)" fill="#754ef9"/>
  </g>
</svg>
