<svg id="safe-box" xmlns="http://www.w3.org/2000/svg" width="56.194" height="56.194" viewBox="0 0 56.194 56.194">
  <g id="Group_6" data-name="Group 6">
    <g id="Group_5" data-name="Group 5">
      <path id="Path_145" data-name="Path 145" d="M50.926,0H5.268A5.268,5.268,0,0,0,0,5.268V50.926a5.268,5.268,0,0,0,5.268,5.268H50.926a5.268,5.268,0,0,0,5.268-5.268V5.268A5.268,5.268,0,0,0,50.926,0Zm1.756,50.926a1.756,1.756,0,0,1-1.756,1.756H5.268a1.756,1.756,0,0,1-1.756-1.756V5.268A1.756,1.756,0,0,1,5.268,3.512H50.926a1.756,1.756,0,0,1,1.756,1.756Z" fill="#754ef9"/>
      <path id="Path_146" data-name="Path 146" d="M113.561,96a17.561,17.561,0,1,0,17.561,17.561A17.561,17.561,0,0,0,113.561,96Zm0,31.609a14.049,14.049,0,1,1,14.049-14.049A14.049,14.049,0,0,1,113.561,127.609Z" transform="translate(-85.464 -85.464)" fill="#754ef9"/>
    </g>
  </g>
</svg>
