<svg width="22" height="22" viewBox="0 0 22 22" fill="none" xmlns="http://www.w3.org/2000/svg">
<path fill-rule="evenodd" clip-rule="evenodd" d="M16.0392 14.015C17.2714 12.5388 18.0082 10.6663 18.0082 8.62893C18.0082 3.8633 13.9769 0 9.0041 0C4.03127 0 0 3.8633 0 8.62893C0 13.3946 4.03127 17.2579 9.0041 17.2579C11.1301 17.2579 13.084 16.5518 14.6244 15.3709L20.2921 20.8025C20.6828 21.1769 21.3163 21.1769 21.707 20.8025C22.0977 20.4281 22.0977 19.821 21.707 19.4466L16.0392 14.015ZM9.0041 15.3499C5.1308 15.3499 1.99087 12.3408 1.99087 8.62893C1.99087 4.91702 5.1308 1.90792 9.0041 1.90792C12.8774 1.90792 16.0173 4.91702 16.0173 8.62893C16.0173 12.3408 12.8774 15.3499 9.0041 15.3499Z" fill="#971700"/>
</svg>
