<svg width="24" height="24" viewBox="0 0 24 24" fill="none" xmlns="http://www.w3.org/2000/svg">
<path d="M11 2C11 1.44772 11.4477 1 12 1C12.0161 1 12.0322 1.00038 12.0481 1.00114C12.0632 1.00051 12.0785 1.00026 12.0938 1.00039C14.1199 1.01765 16.1091 1.59455 17.8374 2.67665C19.8492 3.93625 21.3996 5.8128 22.2571 8.02608C23.1146 10.2394 23.2332 12.6706 22.5951 14.9569C21.9571 17.2431 20.5967 19.2616 18.717 20.711C16.8373 22.1604 14.5393 22.9629 12.1659 22.9988C9.79262 23.0346 7.47138 22.3017 5.54884 20.9097C3.6263 19.5177 2.2056 17.5411 1.49889 15.2752C0.891759 13.3285 0.839553 11.258 1.33799 9.29413C1.47385 8.75881 2.05308 8.48753 2.57385 8.67143C3.09462 8.85532 3.36505 9.4271 3.24007 9.96506C2.8794 11.5176 2.93657 13.1446 3.4147 14.6776C3.99248 16.5302 5.15399 18.1461 6.72579 19.2842C8.29758 20.4223 10.1953 21.0214 12.1357 20.9921C14.076 20.9629 15.9548 20.3068 17.4916 19.1218C19.0283 17.9368 20.1405 16.2866 20.6622 14.4174C21.1838 12.5483 21.0869 10.5606 20.3858 8.75108C19.6847 6.94158 18.4172 5.40739 16.7724 4.37759C15.6232 3.65806 14.3329 3.21174 13 3.06259V5C13 5.55229 12.5523 6 12 6C11.4477 6 11 5.55229 11 5V2Z" fill="#971700"/>
<path fill-rule="evenodd" clip-rule="evenodd" d="M5.31205 3.92537C4.91543 3.66095 4.38731 3.71325 4.05025 4.05031C3.71318 4.38738 3.66089 4.9155 3.9253 5.31212L9.30753 13.3855C9.50568 13.6827 9.80929 14.101 10.283 14.3927C10.6282 14.6053 11.1764 14.8627 11.8475 14.871C12.5576 14.8799 13.2918 14.6077 13.9497 13.9498C14.6076 13.2919 14.8798 12.5577 14.871 11.8475C14.8626 11.1764 14.6053 10.6283 14.3927 10.2831C14.1009 9.80935 13.6826 9.50574 13.3854 9.30759L5.31205 3.92537ZM10.9716 12.2761L8.36291 8.36297L12.276 10.9717C12.5267 11.1388 12.6362 11.2449 12.6897 11.3319C12.7963 11.5049 12.8689 11.6951 12.8711 11.8724C12.8728 12.0107 12.8361 12.235 12.5355 12.5356C12.2349 12.8362 12.0106 12.8729 11.8723 12.8712C11.695 12.869 11.5048 12.7964 11.3318 12.6898C11.2448 12.6362 11.1388 12.5267 10.9716 12.2761Z" fill="#971700"/>
</svg>
